<?xml version="1.0" encoding="UTF-8" standalone="no"?>
<svg
   width="54"
   height="32"
   id="svg3613"
   version="1.1"
   sodipodi:docname="applications.svg"
   inkscape:version="1.1.1 (3bf5ae0d25, 2021-09-20)"
   xmlns:inkscape="http://www.inkscape.org/namespaces/inkscape"
   xmlns:sodipodi="http://sodipodi.sourceforge.net/DTD/sodipodi-0.dtd"
   xmlns:xlink="http://www.w3.org/1999/xlink"
   xmlns="http://www.w3.org/2000/svg"
   xmlns:svg="http://www.w3.org/2000/svg"
   xmlns:rdf="http://www.w3.org/1999/02/22-rdf-syntax-ns#"
   xmlns:cc="http://creativecommons.org/ns#"
   xmlns:dc="http://purl.org/dc/elements/1.1/">
  <sodipodi:namedview
     pagecolor="#ffffff"
     bordercolor="#666666"
     borderopacity="1"
     objecttolerance="10"
     gridtolerance="10"
     guidetolerance="10"
     inkscape:pageopacity="0"
     inkscape:pageshadow="2"
     inkscape:window-width="1920"
     inkscape:window-height="1009"
     id="namedview12"
     showgrid="true"
     inkscape:zoom="21.311203"
     inkscape:cx="37.726636"
     inkscape:cy="12.810164"
     inkscape:window-x="0"
     inkscape:window-y="0"
     inkscape:window-maximized="1"
     inkscape:current-layer="svg3613"
     inkscape:pagecheckerboard="0">
    <inkscape:grid
       type="xygrid"
       id="grid818" />
  </sodipodi:namedview>
  <metadata
     id="metadata13">
    <rdf:RDF>
      <cc:Work
         rdf:about="">
        <dc:format>image/svg+xml</dc:format>
        <dc:type
           rdf:resource="http://purl.org/dc/dcmitype/StillImage" />
      </cc:Work>
    </rdf:RDF>
  </metadata>
  <defs
     id="defs3615">
    <linearGradient
       inkscape:collect="always"
       id="linearGradient863">
      <stop
         style="stop-color:#008080;stop-opacity:1"
         offset="0"
         id="stop859" />
      <stop
         style="stop-color:#c299ff;stop-opacity:1"
         offset="1"
         id="stop861" />
    </linearGradient>
    <style
       type="text/css"
       id="current-color-scheme">
      .ColorScheme-Text {
        color:#31363b;
      }
      .ColorScheme-Background{
        color:#E9E8E8;
      }
      .ColorScheme-ViewText {
        color:#31363b;
      }
      .ColorScheme-ViewBackground{
        color:#ffffff;
      }
      .ColorScheme-ViewHover {
        color:#000000;
      }
      .ColorScheme-ViewFocus{
        color:#5a5a5a;
      }
      .ColorScheme-ButtonText {
        color:#31363b;
      }
      .ColorScheme-ButtonBackground{
        color:#E9E8E8;
      }
      .ColorScheme-ButtonHover {
        color:#1489ff;
      }
      .ColorScheme-ButtonFocus{
        color:#2B74C7;
      }
</style>
    <linearGradient
       inkscape:collect="always"
       xlink:href="#linearGradient863"
       id="linearGradient865"
       x1="424.71433"
       y1="532.69071"
       x2="448.71425"
       y2="532.69071"
       gradientUnits="userSpaceOnUse" />
    <linearGradient
       inkscape:collect="always"
       xlink:href="#linearGradient863"
       id="linearGradient1257"
       x1="423.71432"
       y1="537.79071"
       x2="439.71429"
       y2="537.79071"
       gradientUnits="userSpaceOnUse" />
  </defs>
  <g
     transform="matrix(1.0000029,0,0,1.000001,-420.71555,-516.79125)"
     id="22-22-applications-other">
    <rect
       style="opacity:0.01000001;fill:#000000;fill-opacity:0.00392157;stroke:none"
       id="rect3028"
       width="22"
       height="22"
       x="-7.1556997e-08"
       y="2.0000052"
       transform="matrix(0.99999706,0,0,0.99999899,420.71433,524.79072)" />
    <path
       style="fill:url(#linearGradient1257);fill-opacity:1.0;stroke:none"
       d="m 423.71432,529.79072 0,6.99999 6.99998,0 0,-6.99999 -6.99998,0 z m 8.99998,0 0,6.99999 6.99998,0 0,-6.99999 -6.99998,0 z m -7.99998,1 4.99999,0 0,4.99999 -4.99999,0 0,-4.99999 z m 8.99997,0 4.99999,0 0,4.99999 -4.99999,0 0,-4.99999 z m -9.99997,7.99999 0,6.99999 6.99998,0 0,-6.99999 -6.99998,0 z m 8.99998,0 0,6.99999 0.99999,0 4.99999,0 1,0 0,-1 0,-4.99999 0,-1 -1,0 -4.99999,0 -0.99999,0 z m -7.99998,1 4.99999,0 0,4.99999 -4.99999,0 0,-4.99999 z m 8.99997,0 4.99999,0 0,4.99999 -4.99999,0 0,-4.99999 z"
       id="rect4298"
       class="ColorScheme-Text" />
  </g>
  <g
     transform="matrix(1.0000028,0,0,1.0000009,-398.71551,-516.79118)"
     id="applications-other">
    <rect
       style="opacity:0.01000001;fill:#000000;fill-opacity:0.00392157;stroke:none"
       id="rect2994"
       width="32"
       height="32"
       x="-7.1557004e-08"
       y="-7.9999948"
       transform="matrix(0.99999706,0,0,0.99999899,420.71433,524.79072)" />
    <path
       style="color:#31363b;fill:url(#linearGradient865);fill-opacity:1;stroke:none"
       d="m 424.71433,520.59071 v 10.19999 l 9.99995,10e-6 v -10.2 z m 13.99994,0 v 10.2 l 9.99998,-10e-6 v -10.19999 z m -12.59995,1.3 h 7.19998 v 7.49999 h -7.19998 z m 13.99996,0 h 7.19998 v 7.49999 h -7.19998 z m -15.39995,12.9 v 9.99998 l 9.99995,2e-5 v -9.99998 z m 13.99994,2e-5 v 9.99998 l 1.99999,-2e-5 h 5.99999 2 v -1.99998 -5.99999 -2.00001 h -2 -5.99999 z m -12.59995,1.19997 h 7.19998 v 7.49999 h -7.19998 z m 13.99996,0 h 7.19998 v 7.49999 h -7.19998 z"
       id="path2996"
       class="ColorScheme-Text"
       inkscape:connector-curvature="0"
       sodipodi:nodetypes="cccccccccccccccccccccccccccccccccccccccccccccc" />
  </g>
</svg>
