<?xml version="1.0" encoding="UTF-8" standalone="no"?>
<svg
   width="32"
   height="32"
   version="1.1"
   id="svg12"
   sodipodi:docname="compass.svg"
   inkscape:version="1.1.1 (3bf5ae0d25, 2021-09-20)"
   xmlns:inkscape="http://www.inkscape.org/namespaces/inkscape"
   xmlns:sodipodi="http://sodipodi.sourceforge.net/DTD/sodipodi-0.dtd"
   xmlns:xlink="http://www.w3.org/1999/xlink"
   xmlns="http://www.w3.org/2000/svg"
   xmlns:svg="http://www.w3.org/2000/svg"
   xmlns:rdf="http://www.w3.org/1999/02/22-rdf-syntax-ns#"
   xmlns:cc="http://creativecommons.org/ns#"
   xmlns:dc="http://purl.org/dc/elements/1.1/">
  <g
     id="compass">
    <path
       style="clip-rule:evenodd;fill:#ffffc1;fill-opacity:0;fill-rule:evenodd;stroke-width:1.00213;stroke-linejoin:round;stroke-miterlimit:1.41421"
       d="M 0,0 V 32 H 32 V 0 Z"
       id="rect817"
       inkscape:connector-curvature="0" />
    <path
       d="m 10.482143,21.481857 8.161714,-2.602285 2.602286,-8.161714 -8.161714,2.602286 z m 4.494858,-6.387428 2.602285,-0.827999 -0.828,2.602284 -2.602285,0.828001 z"
       id="path2-2"
       style="fill:url(#linearGradient1356);fill-opacity:1.0;stroke-width:1.18286" />
    <path
       d="M 16.000001,4 C 9.4,4 4,9.4 4,16.000001 4,22.599999 9.4,28 16.000001,28 22.599999,28 28,22.599999 28,16.000001 28,9.4 22.599999,4 16.000001,4 Z m 0,22.070903 C 10.773849,26.011043 5.958373,22.572058 5.929093,16.000001 5.901943,9.903854 10.72,5.929116 16.000001,5.929116 c 5.279999,0 10.164156,4.283791 10.070879,10.070885 -0.09878,6.128328 -4.791227,10.13137 -10.070879,10.070902 z"
       id="path4-3-9"
       style="fill:url(#linearGradient1348);fill-opacity:1;stroke-width:1.20001"
       sodipodi:nodetypes="ssssssssss" />
  </g>
  <metadata
     id="metadata18">
    <rdf:RDF>
      <cc:Work
         rdf:about="">
        <dc:format>image/svg+xml</dc:format>
        <dc:type
           rdf:resource="http://purl.org/dc/dcmitype/StillImage" />
      </cc:Work>
    </rdf:RDF>
  </metadata>
  <defs
     id="defs16">
    <linearGradient
       inkscape:collect="always"
       id="linearGradient2188">
      <stop
         style="stop-color:#008080;stop-opacity:1"
         offset="0"
         id="stop2184" />
      <stop
         style="stop-color:#c299ff;stop-opacity:1"
         offset="1"
         id="stop2186" />
    </linearGradient>
    <linearGradient
       inkscape:collect="always"
       xlink:href="#linearGradient2188"
       id="linearGradient1348"
       x1="5.8181939"
       y1="15.999992"
       x2="26.181829"
       y2="15.999992"
       gradientUnits="userSpaceOnUse"
       gradientTransform="matrix(1.1785715,0,0,1.1785715,-2.857157,-2.8571343)" />
    <linearGradient
       inkscape:collect="always"
       xlink:href="#linearGradient2188"
       id="linearGradient1356"
       x1="11.23783"
       y1="15.617447"
       x2="20.37092"
       y2="15.617447"
       gradientUnits="userSpaceOnUse"
       gradientTransform="matrix(1.1785715,0,0,1.1785715,-2.762443,-2.3064213)" />
    <linearGradient
       inkscape:collect="always"
       xlink:href="#linearGradient2188"
       id="linearGradient1240"
       gradientUnits="userSpaceOnUse"
       gradientTransform="matrix(0.78571433,0,0,0.78571433,30.491704,8.7957187)"
       x1="11.23783"
       y1="15.617447"
       x2="20.37092"
       y2="15.617447" />
    <linearGradient
       inkscape:collect="always"
       xlink:href="#linearGradient2188"
       id="linearGradient1242"
       gradientUnits="userSpaceOnUse"
       gradientTransform="matrix(0.78571433,0,0,0.78571433,30.428562,8.4285767)"
       x1="5.8181939"
       y1="15.999992"
       x2="26.181829"
       y2="15.999992" />
  </defs>
  <sodipodi:namedview
     pagecolor="#ffffff"
     bordercolor="#000000"
     borderopacity="1"
     objecttolerance="10"
     gridtolerance="10"
     guidetolerance="10"
     inkscape:pageopacity="0"
     inkscape:pageshadow="2"
     inkscape:window-width="1920"
     inkscape:window-height="1007"
     id="namedview14"
     showgrid="false"
     inkscape:zoom="8"
     inkscape:cx="25.5"
     inkscape:cy="8.375"
     inkscape:window-x="0"
     inkscape:window-y="0"
     inkscape:window-maximized="1"
     inkscape:current-layer="svg12"
     inkscape:document-rotation="0"
     inkscape:lockguides="true"
     inkscape:showpageshadow="false"
     inkscape:pagecheckerboard="0">
    <inkscape:grid
       type="xygrid"
       id="grid880"
       originx="32"
       originy="9.9999997" />
  </sodipodi:namedview>
  <g
     id="22-22-compass">
    <path
       style="clip-rule:evenodd;fill:#ffffc1;fill-opacity:0;fill-rule:evenodd;stroke-width:0.688964;stroke-linejoin:round;stroke-miterlimit:1.41421"
       d="M 32,9.9999997 V 32 H 54 V 9.9999997 Z"
       id="rect817-5"
       inkscape:connector-curvature="0" />
    <path
       d="m 39.321429,24.654571 5.441142,-1.734856 1.734858,-5.441143 -5.441143,1.734857 z m 2.996572,-4.258285 1.734856,-0.551999 -0.552,1.734856 -1.734856,0.552 z"
       id="path2-2-7"
       style="fill:url(#linearGradient1240);fill-opacity:1.0;stroke-width:0.788573" />
    <path
       d="M 43.000001,13 C 38.6,13 35,16.6 35,21.000001 35,25.399999 38.6,29 43.000001,29 47.399999,29 51,25.399999 51,21.000001 51,16.6 47.399999,13 43.000001,13 Z m 0,14.713935 c -3.484102,-0.03991 -6.694419,-2.332563 -6.713939,-6.713934 -0.0181,-4.064098 3.193938,-6.713924 6.713939,-6.713924 3.519999,0 6.776103,2.855861 6.713919,6.713924 -0.06585,4.085552 -3.194151,6.754246 -6.713919,6.713934 z"
       id="path4-3-9-5"
       style="fill:url(#linearGradient1242);fill-opacity:1.0;stroke-width:0.800007"
       sodipodi:nodetypes="ssssssssss" />
  </g>
</svg>
