<?xml version="1.0" encoding="UTF-8" standalone="no"?>
<svg
   xmlns:osb="http://www.openswatchbook.org/uri/2009/osb"
   xmlns:dc="http://purl.org/dc/elements/1.1/"
   xmlns:cc="http://creativecommons.org/ns#"
   xmlns:rdf="http://www.w3.org/1999/02/22-rdf-syntax-ns#"
   xmlns:svg="http://www.w3.org/2000/svg"
   xmlns="http://www.w3.org/2000/svg"
   xmlns:sodipodi="http://sodipodi.sourceforge.net/DTD/sodipodi-0.dtd"
   xmlns:inkscape="http://www.inkscape.org/namespaces/inkscape"
   style="enable-background:new"
   width="32"
   height="32"
   version="1.1"
   id="svg63"
   sodipodi:docname="list.svg"
   inkscape:version="0.92.3 (unknown)">
  <metadata
     id="metadata67">
    <rdf:RDF>
      <cc:Work
         rdf:about="">
        <dc:format>image/svg+xml</dc:format>
        <dc:type
           rdf:resource="http://purl.org/dc/dcmitype/StillImage" />
      </cc:Work>
    </rdf:RDF>
  </metadata>
  <sodipodi:namedview
     pagecolor="#ffffff"
     bordercolor="#666666"
     borderopacity="1"
     objecttolerance="10"
     gridtolerance="10"
     guidetolerance="10"
     inkscape:pageopacity="0"
     inkscape:pageshadow="2"
     inkscape:window-width="1280"
     inkscape:window-height="982"
     id="namedview65"
     showgrid="false"
     inkscape:zoom="21.404785"
     inkscape:cx="16"
     inkscape:cy="55.243561"
     inkscape:window-x="0"
     inkscape:window-y="0"
     inkscape:window-maximized="1"
     inkscape:current-layer="svg63" />
  <defs
     id="defs4">
    <linearGradient
       id="linearGradient5606"
       osb:paint="solid">
      <stop
         id="stop5608"
         offset="0"
         style="stop-color:#000000" />
    </linearGradient>
  </defs>
  <g
     id="22-22-list-remove"
     transform="translate(-253,-17)">
    <rect
       style="opacity:0"
       width="22"
       height="22"
       x="285"
       y="-5"
       id="rect6" />
    <g
       style="enable-background:new"
       transform="translate(285.00081,-5.00334)"
       id="g11">
      <g
         id="layer12-2"
         transform="translate(-445.0004,125.00336)">
        <path
           style="fill:#dfdfdf"
           d="m 461.65725,-119.66021 a 8,8 0 0 0 -11.3137,0 8,8 0 0 0 0,11.3137 8,8 0 0 0 11.3137,0 8,8 0 0 0 0,-11.3137 z m -1.22362,3.34494 a 5,5 0 0 1 -0.8977,5.84744 5,5 0 0 1 -5.84329,0.89355 z m -2.12547,-2.11717 -6.74099,6.74099 a 5,5 0 0 1 0.8977,-5.84744 5,5 0 0 1 5.84329,-0.89355 z"
           id="path8" />
      </g>
    </g>
  </g>
  <g
     id="22-22-list-add"
     transform="translate(-253.00081,15.00334)">
    <path
       style="opacity:0"
       d="m 285.00081,-5.00334 h 22 v 22 h -22 z"
       id="path14" />
    <path
       style="fill:#dfdfdf"
       d="M 9,3 V 9 H 3 v 4 h 6 v 6 h 4 v -6 h 6 V 9 H 13 V 3 Z"
       transform="translate(285.00081,-5.00334)"
       id="path16" />
  </g>
  <g
     id="16-16-list-remove"
     transform="translate(-252,10)">
    <rect
       style="opacity:0;fill:#39ffff"
       width="16"
       height="16"
       x="306"
       y="-26"
       id="rect19" />
    <g
       style="enable-background:new"
       transform="translate(306.00095,-26.00332)"
       id="g24">
      <g
         id="layer12-3"
         transform="translate(-445.0004,119.00336)">
        <path
           style="fill:#dfdfdf"
           d="m 453.00026,-118.00338 c -3.86295,0 -7,3.13704 -7,7 0,3.86295 3.13705,7 7,7 3.86295,0 7,-3.13705 7,-7 0,-3.86296 -3.13705,-7 -7,-7 z m 0,2 c 1.01943,0 1.95898,0.28763 2.75,0.8125 l -6.9375,6.9375 c -0.52487,-0.79102 -0.8125,-1.73057 -0.8125,-2.75 0,-2.75926 2.24075,-5 5,-5 z m 4.1875,2.25 c 0.52487,0.79102 0.8125,1.73057 0.8125,2.75 0,2.75925 -2.24075,5 -5,5 -1.01943,0 -1.95898,-0.28763 -2.75,-0.8125 z"
           id="path21" />
      </g>
    </g>
  </g>
  <g
     id="16-16-list-add"
     transform="translate(-234,42)">
    <rect
       style="opacity:0;fill:#39ffff"
       width="16"
       height="16"
       x="288"
       y="-26"
       id="rect27" />
    <g
       style="enable-background:new"
       transform="translate(288.00081,-26.00334)"
       id="g32">
      <g
         id="layer12-21"
         transform="translate(-285.00081,-0.99666)">
        <path
           style="fill:#dfdfdf"
           d="m 292.00081,1.99666 v 6 h -6 v 2 h 6 v 6 h 2 v -6 h 6 v -2 h -6 v -6 z"
           id="path29" />
      </g>
    </g>
  </g>
  <g
     id="list-add">
    <rect
       width="32"
       height="32"
       x="0"
       y="0"
       style="opacity:0.001"
       id="rect35" />
    <rect
       width="6"
       height="28"
       x="13"
       y="2"
       rx="2"
       ry="2"
       style="fill:#006a80;fill-opacity:1"
       id="rect39" />
    <rect
       style="fill:#006a80;fill-opacity:1"
       width="6"
       height="28"
       x="13"
       y="-30"
       rx="2"
       ry="2"
       transform="rotate(90)"
       id="rect43" />
  </g>
  <g
     style="enable-background:new"
     id="list-remove"
     transform="translate(0,-32)">
    <rect
       width="32"
       height="32"
       x="0"
       y="0"
       rx="2.376"
       ry="2.087"
       style="opacity:0.00100002"
       id="rect50" />
    <circle
       cx="16"
       cy="16"
       r="14"
       style="fill:#006a80;fill-opacity:1"
       id="circle54" />
    <path
       d="M 16,6 A 10,10 0 0 0 6,16 10,10 0 0 0 7.6621094,21.507812 L 21.507812,7.6621094 A 10,10 0 0 0 16,6 Z m 8.337891,4.492188 -13.845703,13.845703 A 10,10 0 0 0 16,26 10,10 0 0 0 26,16 10,10 0 0 0 24.337891,10.492188 Z"
       style="fill:#ffffff"
       id="path58" />
  </g>
</svg>
