<?xml version="1.0" encoding="UTF-8" standalone="no"?>
<svg
   id="svg12"
   width="32"
   height="32"
   version="1.1"
   sodipodi:docname="start.svg"
   inkscape:version="1.1.1 (3bf5ae0d25, 2021-09-20)"
   xmlns:inkscape="http://www.inkscape.org/namespaces/inkscape"
   xmlns:sodipodi="http://sodipodi.sourceforge.net/DTD/sodipodi-0.dtd"
   xmlns:xlink="http://www.w3.org/1999/xlink"
   xmlns="http://www.w3.org/2000/svg"
   xmlns:svg="http://www.w3.org/2000/svg">
  <defs
     id="defs17">
    <linearGradient
       id="SVGID_5_"
       gradientUnits="userSpaceOnUse"
       x1="190.17"
       y1="155.7"
       x2="412.04001"
       y2="155.7"
       gradientTransform="matrix(0.04687501,0,0,-0.04687501,3.9488637,14.509851)">
      <stop
         offset="0"
         style="stop-color:#FFFFFF"
         id="stop44" />
      <stop
         offset="1"
         style="stop-color:#D5D9D8"
         id="stop46" />
    </linearGradient>
    <linearGradient
       inkscape:collect="always"
       xlink:href="#SVGID_5_"
       id="linearGradient1821"
       gradientUnits="userSpaceOnUse"
       gradientTransform="matrix(0.03125001,0,0,-0.03125001,2.9659093,10.006568)"
       x1="190.17"
       y1="155.7"
       x2="412.04001"
       y2="155.7" />
    <linearGradient
       inkscape:collect="always"
       xlink:href="#SVGID_5_"
       id="linearGradient2054"
       gradientUnits="userSpaceOnUse"
       gradientTransform="matrix(0.04687501,0,0,-0.04687501,3.9488637,14.509851)"
       x1="190.17"
       y1="155.7"
       x2="412.04001"
       y2="155.7" />
  </defs>
  <sodipodi:namedview
     id="namedview15"
     pagecolor="#ffffff"
     bordercolor="#666666"
     borderopacity="1.0"
     inkscape:pageshadow="2"
     inkscape:pageopacity="0.0"
     inkscape:pagecheckerboard="0"
     showgrid="false"
     inkscape:zoom="7.2054905"
     inkscape:cx="13.461957"
     inkscape:cy="20.401109"
     inkscape:window-width="1920"
     inkscape:window-height="1007"
     inkscape:window-x="0"
     inkscape:window-y="0"
     inkscape:window-maximized="1"
     inkscape:current-layer="svg12"
     inkscape:lockguides="true">
    <inkscape:grid
       type="xygrid"
       id="grid1635"
       originx="0"
       originy="0" />
  </sodipodi:namedview>
  <g
     id="start-here-kde">
    <rect
       id="rect7"
       style="opacity:0.00100002"
       width="32"
       height="32"
       x="0"
       y="0" />
    <circle
       style="opacity:1;fill:#c8b2ea;fill-opacity:0.40000001;stroke-width:0.046875"
       cx="16"
       cy="16"
       r="12"
       id="circle13" />
    <path
       style="fill:#132e43;fill-opacity:1;stroke-width:0.046875"
       d="m 15.870164,25.073751 c 3.4658,-0.4454 5.1349,-4.2307 3.6625,-6.6852 -0.5222,-0.8705 -1.364,-1.3605 -2.2239,-1.8739 -2.0855,-1.2448 -4.8374,-2.3266 -4.8503,-5.0139 -0.015,-3.0671002 2.9386,-4.1918002 4.3686,-4.5566002 -0.9267,-0.084 -1.8821,-0.028 -2.8387,0.1894 -4.8968003,1.111 -7.9658003,5.9813002 -6.8547003,10.8781002 0.976,4.3018 4.8533003,7.1925 9.1011003,7.0783 -0.122,0 -0.2435,-0.01 -0.3646,-0.016 z"
       id="path24"
       inkscape:connector-curvature="0" />
    <path
       style="fill:#2892a8;fill-opacity:1;stroke-width:0.046875"
       d="m 18.011764,24.866451 c 4.8967,-1.111 7.9657,-5.9813 6.8547,-10.8781 -0.9223,-4.0649004 -4.4351,-6.8700002 -8.4032,-7.0703002 v 0 c -10e-5,0 -2e-4,0 -3e-4,0 -1.3847,0.3357 -4.4884,1.4388 -4.4733,4.5827002 0.013,2.6873 2.7648,3.7691 4.8503,5.0139 0.8599,0.5134 1.7017,1.0034 2.2239,1.8739 1.4724,2.4545 -0.1968,6.2398 -3.6625,6.6852 0.855,0.056 1.7321,-0.01 2.6104,-0.2073 z"
       id="path31"
       inkscape:connector-curvature="0" />
    <circle
       style="fill:#132e43;fill-opacity:1;stroke-width:0.046875"
       cx="15.741707"
       cy="11.211671"
       r="2.4060941"
       id="circle42" />
    <circle
       style="fill:url(#linearGradient2054);stroke-width:0.046875"
       cx="15.788582"
       cy="20.795288"
       r="2.4060941"
       id="circle49" />
  </g>
  <g
     id="22-22-start-here-kde"
     transform="translate(-22,10)">
    <rect
       id="rect2"
       style="opacity:0.00100002"
       width="22"
       height="22"
       x="0"
       y="0" />
    <circle
       style="opacity:1;fill:#c9b3ea;fill-opacity:0.40000001;stroke-width:0.03125"
       cx="11"
       cy="11"
       r="8"
       id="circle13-7" />
    <path
       style="fill:#132e43;fill-opacity:1;stroke-width:0.03125"
       d="m 10.913443,17.049167 c 2.310533,-0.296933 3.423266,-2.820466 2.441666,-4.4568 -0.348133,-0.580333 -0.909333,-0.907 -1.4826,-1.249266 -1.390333,-0.829867 -3.2249327,-1.5510663 -3.2335327,-3.3425996 -0.01,-2.0447335 1.9590667,-2.7945335 2.9123997,-3.0377335 -0.6178,-0.056 -1.254733,-0.018667 -1.8924667,0.1262667 -3.264533,0.7406666 -5.310533,3.9875334 -4.5698,7.2520664 0.650667,2.867866 3.235534,4.795 6.0673997,4.718866 -0.08133,0 -0.162333,-0.0067 -0.243066,-0.01067 z"
       id="path24-5"
       inkscape:connector-curvature="0" />
    <path
       style="fill:#2892a8;fill-opacity:1;stroke-width:0.03125"
       d="m 12.341176,16.910967 c 3.264467,-0.740666 5.310467,-3.987533 4.5698,-7.2520656 C 16.296109,6.9489678 13.954243,5.0789012 11.308843,4.9453679 v 0 c -6.7e-5,0 -1.34e-4,0 -2e-4,0 -0.923134,0.2238 -2.9922667,0.9592 -2.9821997,3.0551335 0.0087,1.7915333 1.8431997,2.5127326 3.2335327,3.3425996 0.573267,0.342266 1.134467,0.668933 1.4826,1.249266 0.9816,1.636334 -0.1312,4.159867 -2.441667,4.4568 0.57,0.03733 1.154734,-0.0067 1.740267,-0.1382 z"
       id="path31-3"
       inkscape:connector-curvature="0" />
    <circle
       style="fill:#132e43;fill-opacity:1;stroke-width:0.03125"
       cx="10.827805"
       cy="7.8077807"
       r="1.6040627"
       id="circle42-5" />
    <circle
       style="fill:url(#linearGradient1821);stroke-width:0.03125"
       cx="10.859055"
       cy="14.196859"
       r="1.6040627"
       id="circle49-6" />
  </g>
</svg>
