<?xml version="1.0" encoding="UTF-8" standalone="no"?>
<!-- Created with Inkscape (http://www.inkscape.org/) -->

<svg
   xmlns:dc="http://purl.org/dc/elements/1.1/"
   xmlns:cc="http://creativecommons.org/ns#"
   xmlns:rdf="http://www.w3.org/1999/02/22-rdf-syntax-ns#"
   xmlns:svg="http://www.w3.org/2000/svg"
   xmlns="http://www.w3.org/2000/svg"
   xmlns:sodipodi="http://sodipodi.sourceforge.net/DTD/sodipodi-0.dtd"
   xmlns:inkscape="http://www.inkscape.org/namespaces/inkscape"
   width="32.808334mm"
   height="13.758302mm"
   viewBox="0 0 124 51.999881"
   version="1.1"
   id="svg1647"
   inkscape:version="0.92.3 (unknown)"
   sodipodi:docname="configuration-icons.svg">
  <defs
     id="defs1641" />
  <sodipodi:namedview
     id="base"
     pagecolor="#ffffff"
     bordercolor="#666666"
     borderopacity="1.0"
     inkscape:pageopacity="0.0"
     inkscape:pageshadow="2"
     inkscape:zoom="5.6"
     inkscape:cx="13.91254"
     inkscape:cy="33.853549"
     inkscape:document-units="px"
     inkscape:current-layer="layer1"
     showgrid="false"
     inkscape:window-width="1280"
     inkscape:window-height="982"
     inkscape:window-x="0"
     inkscape:window-y="0"
     inkscape:window-maximized="1" />
  <metadata
     id="metadata1644">
    <rdf:RDF>
      <cc:Work
         rdf:about="">
        <dc:format>image/svg+xml</dc:format>
        <dc:type
           rdf:resource="http://purl.org/dc/dcmitype/StillImage" />
        <dc:title />
      </cc:Work>
    </rdf:RDF>
  </metadata>
  <g
     inkscape:label="Layer 1"
     inkscape:groupmode="layer"
     id="layer1"
     transform="translate(-365.14286,-639.37688)">
    <g
       transform="matrix(3.7795277,0,0,3.7795277,367.14286,-303.14272)"
       id="return-to-source">
      <rect
         style="opacity:1;fill:#ca5c5c;fill-opacity:0"
         id="rect4406"
         width="4.2333331"
         height="4.2333379"
         x="18.520832"
         y="254.13742" />
      <path
         inkscape:connector-curvature="0"
         id="rect4560"
         transform="matrix(0.26458333,0,0,0.26458333,-0.52916771,249.37493)"
         d="M 74.890625,19 C 73.843696,19 73,19.843696 73,20.890625 v 10.21875 C 73,32.156304 73.843696,33 74.890625,33 h 10.21875 C 86.156304,33 87,32.156304 87,31.109375 V 20.890625 C 87,19.843696 86.156304,19 85.109375,19 Z M 77,20 h 6 c 0,-0.04158 -3,4 -3,4 z m -3,5 h 12 v 2 H 74 Z m 6,3 c 0,0 3,4.041575 3,4 h -6 z"
         style="opacity:1;fill:#f9f9f9;fill-opacity:1" />
    </g>
    <g
       id="add"
       transform="matrix(3.7795277,0,0,3.7795277,367.14286,-303.14272)">
      <rect
         y="258.89993"
         x="8.9958324"
         height="4.2333322"
         width="4.2333336"
         id="rect4488"
         style="opacity:1;fill:none;fill-opacity:1;stroke:none" />
      <rect
         style="opacity:1;fill:none;fill-opacity:1;stroke:none"
         id="rect4490"
         width="3.1750002"
         height="3.1749992"
         x="9.5249996"
         y="259.42911" />
      <path
         style="color:#31363b;opacity:1;fill:#ffffff;fill-opacity:1;stroke:none"
         d="m 43,38 v 5 h -5 v 2 h 5 v 5 h 2 v -5 h 5 v -2 h -5 v -5 z"
         transform="matrix(0.26458333,0,0,0.26458333,-0.52916771,249.37493)"
         id="rect4498"
         class="ColorScheme-Text"
         inkscape:connector-curvature="0" />
    </g>
    <g
       id="remove"
       transform="matrix(3.7795277,0,0,3.7795277,367.14288,-303.14272)">
      <rect
         style="opacity:1;fill:none;fill-opacity:1;stroke:none"
         id="rect4502"
         width="4.2333336"
         height="4.2333322"
         x="13.758328"
         y="258.89993" />
      <rect
         y="259.42911"
         x="14.287497"
         height="3.1749992"
         width="3.1750002"
         id="rect4504"
         style="opacity:1;fill:none;fill-opacity:1;stroke:none" />
      <rect
         y="-17.462498"
         x="260.75204"
         height="3.175"
         width="0.5291667"
         id="rect4508"
         style="color:#31363b;opacity:1;fill:#fafafa;fill-opacity:1;stroke:none"
         transform="rotate(90)"
         class="ColorScheme-Text" />
    </g>
    <g
       id="filter"
       transform="matrix(3.7795277,0,0,3.7795277,367.14288,-303.14272)">
      <rect
         y="258.89993"
         x="18.520828"
         height="4.2333322"
         width="4.2333336"
         id="rect4527"
         style="opacity:1;fill:none;fill-opacity:1;stroke:none" />
      <rect
         style="opacity:1;fill:none;fill-opacity:1;stroke:none"
         id="rect4529"
         width="3.1750002"
         height="3.1749992"
         x="19.049997"
         y="259.42911" />
      <path
         style="color:#31363b;opacity:1;fill:#fefefe;fill-opacity:1;fill-rule:evenodd;stroke:none;stroke-width:0.26458335px;stroke-linecap:butt;stroke-linejoin:miter;stroke-opacity:1"
         d="m 76.304688,57.787109 -1,1 v 1 l 3,5.259766 v 2.740234 0.002 l 3,1.996094 v 0.002 h 1 v -0.539062 -4.201172 l 3,-5.259766 v -1 l -1,-1 h -8 z m 1,2 h 3 l -1,1 v 1 z"
         transform="matrix(0.26458333,0,0,0.26458333,-0.60971093,244.13962)"
         id="path4720"
         inkscape:connector-curvature="0" />
    </g>
    <g
       transform="matrix(3.7795277,0,0,3.7795277,367.14286,-303.14272)"
       id="menu">
      <rect
         y="249.37497"
         x="-0.52916771"
         height="4.2333379"
         width="4.2333331"
         id="rect4248"
         style="opacity:1;fill:#ca5c5c;fill-opacity:0" />
      <g
         transform="matrix(0.26458333,0,0,0.26458333,-0.52900367,249.37493)"
         id="g4241"
         style="enable-background:new">
        <g
           id="layer12"
           inkscape:label="actions"
           style="display:inline"
           transform="translate(-265.00082,19.003342)">
          <path
             inkscape:connector-curvature="0"
             d="m 266.0002,-15.860486 v 2.086411 h 14 v -2.086411 z m 0,4.172824 v 2.0864108 h 14 v -2.0864108 z m 6.2e-4,4.1693367 v 2.0864116 h 14 v -2.0864116 z"
             id="rect10753"
             sodipodi:nodetypes="ccccccccccccccc"
             style="opacity:1;fill:#006a80;fill-opacity:1;stroke:none;stroke-width:1.17284715" />
        </g>
      </g>
    </g>
    <g
       transform="matrix(3.7795277,0,0,3.7795277,367.14286,-303.14272)"
       id="configure">
      <rect
         style="opacity:1;fill:#ca5c5c;fill-opacity:0"
         id="rect4250"
         width="4.2333331"
         height="4.2333379"
         x="4.2333322"
         y="249.37497" />
      <g
         transform="matrix(0.26458333,0,0,0.26458333,-107.96654,136.13326)"
         style="display:inline"
         inkscape:label="categories"
         id="layer2">
        <path
           style="display:inline;opacity:1;fill:#fefefe;fill-opacity:1;stroke:none;stroke-opacity:1;enable-background:new"
           id="path10500-6"
           d="m 430.25,429 -0.1543,1.84375 a 5.5,5.5 0 0 0 -1.60742,0.92969 l -1.67578,-0.78906 -1.75,3.03124 1.52148,1.05665 a 5.5,5.5 0 0 0 -0.084,0.92773 5.5,5.5 0 0 0 0.0801,0.93164 l -1.51758,1.05274 1.75,3.03124 1.67188,-0.7871 a 5.5,5.5 0 0 0 1.61132,0.92382 L 430.25,443 h 3.5 l 0.1543,-1.84375 a 5.5,5.5 0 0 0 1.60742,-0.92969 l 1.67578,0.78906 1.75,-3.03124 -1.52148,-1.05665 a 5.5,5.5 0 0 0 0.084,-0.92773 5.5,5.5 0 0 0 -0.0801,-0.93164 l 1.51758,-1.05274 -1.75,-3.03124 -1.67188,0.7871 a 5.5,5.5 0 0 0 -1.61132,-0.92382 L 433.75,429 Z m 1.75,5 a 2,2 0 0 1 2,2 2,2 0 0 1 -2,2 2,2 0 0 1 -2,-2 2,2 0 0 1 2,-2 z"
           inkscape:connector-curvature="0" />
      </g>
    </g>
    <g
       transform="matrix(3.7795277,0,0,3.7795277,367.14286,-303.14272)"
       id="rotate">
      <rect
         y="249.37497"
         x="8.9958324"
         height="4.2333379"
         width="4.2333331"
         id="rect4302"
         style="opacity:1;fill:#ca5c5c;fill-opacity:0" />
      <g
         transform="matrix(0.26458333,0,0,0.26458333,8.9964326,249.37058)"
         id="g4328"
         style="enable-background:new">
        <g
           id="layer12-4"
           inkscape:label="actions"
           style="display:inline"
           transform="translate(-425.00247,99.016457)">
          <path
             inkscape:connector-curvature="0"
             d="m 433.0002,-98 c -3.86599,0 -7,3.13401 -7,7 0,3.86599 3.13401,7 7,7 3.17482,0 5.86154,-2.10317 6.71875,-5 h -2.15625 c -0.77427,1.75952 -2.51681,3 -4.5625,3 -2.76142,0 -5,-2.23858 -5,-5 0,-2.76142 2.23858,-5 5,-5 1.38155,0 2.61548,0.575049 3.51562,1.484375 L 434.0002,-92 h 6 v -6 l -2.05273,2.052734 C 436.67897,-97.212023 434.93408,-98 433.0002,-98 Z"
             id="path5865"
             style="opacity:1;fill:#ffffff;fill-opacity:1;stroke:none" />
        </g>
      </g>
    </g>
    <g
       transform="matrix(3.7795277,0,0,3.7795277,367.14286,-303.14272)"
       id="size-vertical">
      <rect
         y="249.37497"
         x="18.520832"
         height="4.2333379"
         width="4.2333331"
         id="rect4306"
         style="opacity:1;fill:#ca5c5c;fill-opacity:0" />
      <path
         inkscape:connector-curvature="0"
         id="path3807-1-1-4-7-2-1"
         transform="matrix(0.26458333,0,0,0.26458333,-0.52916771,249.37493)"
         d="m 80,1 -3,4 h 6 C 83,5.041575 80,1 80,1 Z m 0,5 a 2,2 0 0 0 -2,2 2,2 0 0 0 2,2 2,2 0 0 0 2,-2 2,2 0 0 0 -2,-2 z m -3,5 3,4 c 0,0 3,-4.041575 3,-4 z"
         style="opacity:1;fill:#ffffff;fill-opacity:1;stroke:none" />
    </g>
    <g
       transform="matrix(3.7795277,0,0,3.7795277,367.14286,-303.14272)"
       id="size-horizontal">
      <rect
         style="opacity:1;fill:#ca5c5c;fill-opacity:0"
         id="rect4309"
         width="4.2333331"
         height="4.2333379"
         x="23.283327"
         y="249.37497" />
      <path
         inkscape:connector-curvature="0"
         style="opacity:1;fill:#ffffff;fill-opacity:1;stroke:none"
         d="m 27.252082,251.4916 -1.058333,-0.79375 v 1.5875 c -0.011,0 1.058333,-0.79375 1.058333,-0.79375 z m -1.322917,0 a 0.52916666,0.52916666 0 0 0 -0.529166,-0.52917 0.52916666,0.52916666 0 0 0 -0.529167,0.52917 0.52916666,0.52916666 0 0 0 0.529167,0.52916 0.52916666,0.52916666 0 0 0 0.529166,-0.52916 z m -1.322916,-0.79375 -1.058334,0.79375 c 0,0 1.069334,0.79375 1.058334,0.79375 z"
         id="path4380" />
    </g>
    <g
       transform="matrix(3.7795277,0,0,3.7795277,367.14286,-303.14272)"
       id="move">
      <rect
         style="opacity:1;fill:#ca5c5c;fill-opacity:0"
         id="rect4304"
         width="4.2333331"
         height="4.2333379"
         x="13.758332"
         y="249.37497" />
      <path
         inkscape:connector-curvature="0"
         id="path4382"
         transform="matrix(0.26458333,0,0,0.26458333,-0.52916771,249.37493)"
         d="m 62,1 -3,4 h 6 C 65,5.041575 62,1 62,1 Z m 3,4 v 6 c -0.04157,0 4,-3 4,-3 z m 0,6 h -6 l 3,4 c 0,0 3,-4.041575 3,-4 z m -6,0 V 5 l -4,3 c 0,0 4.041575,3 4,3 z m 3,-5 a 2,2 0 0 0 -2,2 2,2 0 0 0 2,2 2,2 0 0 0 2,-2 2,2 0 0 0 -2,-2 z"
         style="opacity:1;fill:#fdfdfd;fill-opacity:1;stroke:none" />
    </g>
    <g
       transform="matrix(3.7795277,0,0,3.7795277,367.14286,-303.14272)"
       id="size-diagonal-tl2br">
      <rect
         y="254.13742"
         x="-0.52916777"
         height="4.2333379"
         width="4.2333331"
         id="rect4389"
         style="opacity:1;fill:#ca5c5c;fill-opacity:0" />
      <g
         transform="matrix(0.26458333,0,0,0.26458333,-0.52906453,254.13655)"
         id="g4424"
         style="enable-background:new">
        <g
           id="layer12-0"
           inkscape:label="actions"
           style="display:inline"
           transform="translate(-265.00059,79.003339)">
          <path
             inkscape:connector-curvature="0"
             id="path10424"
             transform="translate(265.0002,-97.000013)"
             d="m 2,20 c -1.00000002,0 -1,1 -1,1 v 4 H 3 V 23.457031 L 6.2421875,26.699219 7.65625,25.285156 4.3710938,22 H 6 v -2 z m 8,0 v 2 h 3 v 3 h 2 v -4 c 0,-1 -1,-1 -1,-1 z m -9,7 v 4 c 0,1 1,1 1,1 H 6 V 30 H 3 v -3 z m 12,0 v 3 h -3 v 2 h 4 c 0,0 1,0 1,-1 v -4 z"
             style="color:#bebebe;opacity:1;fill:#ffffff;fill-opacity:1;stroke:none" />
        </g>
      </g>
    </g>
    <g
       transform="matrix(3.7795277,0,0,3.7795277,367.14286,-303.14272)"
       id="maximize">
      <rect
         y="254.13742"
         x="4.2333322"
         height="4.2333379"
         width="4.2333331"
         id="rect4412"
         style="opacity:1;fill:#ca5c5c;fill-opacity:0" />
      <g
         style="enable-background:new"
         id="g4434"
         transform="matrix(-0.26458333,0,0,0.26458333,8.4665622,254.13655)">
        <g
           transform="translate(-265.00059,79.003339)"
           style="display:inline"
           inkscape:label="actions"
           id="g4436">
          <path
             inkscape:connector-curvature="0"
             id="path4438"
             transform="translate(247.0002,-97.000013)"
             d="m 20,20 c -1,0 -1,1 -1,1 v 4 h 2 V 23.457031 L 24.242188,26.699219 25.65625,25.285156 22.371094,22 H 24 v -2 z m 8,0 v 2 h 3 v 3 h 2 v -4 c 0,-1 -1,-1 -1,-1 z m -9,7 v 4 c 0,1 1,1 1,1 h 4 v -2 h -3 v -3 z m 12,0 v 3 h -3 v 2 h 4 c 0,0 1,0 1,-1 v -4 z"
             style="color:#bebebe;opacity:1;fill:#ffffff;fill-opacity:1;stroke:none" />
        </g>
      </g>
    </g>
    <g
       transform="matrix(3.7795277,0,0,3.7795277,367.14286,-303.14272)"
       id="unmaximize">
      <rect
         style="opacity:1;fill:#ca5c5c;fill-opacity:0"
         id="rect4410"
         width="4.2333331"
         height="4.2333379"
         x="8.9958324"
         y="254.13742" />
      <path
         inkscape:connector-curvature="0"
         style="color:#bebebe;opacity:1;fill:#f8f8f8;fill-opacity:1;stroke:none"
         d="m 9.5249988,254.6666 c 0,0 -0.2645833,0 -0.2645833,0.26458 v 1.05833 h 0.5291667 v -0.79375 h 0.7937498 v -0.52916 z"
         id="path4762" />
      <path
         style="color:#bebebe;opacity:1;fill:#ffffff;fill-opacity:1;stroke:none"
         d="m 12.234911,254.74618 -0.857829,0.85783 v -0.40825 h -0.529167 v 1.05833 c 0,0 10e-7,0.26459 0.264584,0.26459 h 1.058333 v -0.52917 h -0.430981 l 0.869197,-0.8692 z"
         id="path4760"
         inkscape:connector-curvature="0" />
      <path
         inkscape:connector-curvature="0"
         style="color:#bebebe;opacity:1;fill:#ffffff;fill-opacity:1;stroke:none"
         d="m 9.2604155,256.51868 v 1.05833 c 0,0.26458 0.2645833,0.26459 0.2645833,0.26459 h 1.0583332 v -0.52917 H 9.7895822 v -0.79375 z"
         id="path4758" />
      <path
         inkscape:connector-curvature="0"
         style="color:#bebebe;opacity:1;fill:#ffffff;fill-opacity:1;stroke:none"
         d="m 12.435415,256.51868 v 0.79375 h -0.79375 v 0.52917 h 1.058334 c 0,0 0.264583,-1e-5 0.264583,-0.26459 v -1.05833 z"
         id="path4478" />
    </g>
    <g
       transform="matrix(3.7795277,0,0,3.7795277,367.14286,-303.14272)"
       id="size-diagonal-tr2bl">
      <rect
         y="249.37497"
         x="28.045832"
         height="4.2333379"
         width="4.2333331"
         id="rect4311"
         style="opacity:1;fill:#ca5c5c;fill-opacity:0" />
      <g
         transform="matrix(-0.26458333,0,0,0.26458333,32.279062,249.37405)"
         id="g4489"
         style="enable-background:new">
        <g
           id="g4491"
           inkscape:label="actions"
           style="display:inline"
           transform="translate(-265.00059,79.003339)">
          <path
             inkscape:connector-curvature="0"
             id="path4501"
             transform="matrix(-0.99999998,0,0,0.99999998,389.0002,-79.000013)"
             d="m 110,2 c 0,0 -1,0 -1,1 v 4 h 2 V 4 h 3 V 2 Z m 8,0 v 2 h 1.62891 l -3.28516,3.2851562 1.41406,1.4140626 L 121,5.4570312 V 7 h 2 V 3 c 0,0 0,-1 -1,-1 z M 114.24219,7.3007812 111,10.542969 V 9 h -2 v 4 c 0,0 0,1 1,1 h 4 v -2 h -1.62891 l 3.28516,-3.2851562 z M 121,9 v 3 h -3 v 2 h 4 c 0,0 1,0 1,-1 V 9 Z"
             style="color:#bebebe;opacity:1;fill:#fefefe;fill-opacity:1;stroke:none" />
        </g>
      </g>
    </g>
    <g
       transform="matrix(3.7795277,0,0,3.7795277,367.14286,-303.14272)"
       id="status">
      <rect
         y="254.13742"
         x="13.758332"
         height="4.2333379"
         width="4.2333331"
         id="rect4408"
         style="opacity:1;fill:#ca5c5c;fill-opacity:0" />
      <g
         transform="matrix(0.26458333,0,0,0.26458333,13.750344,254.00514)"
         id="g4532"
         style="enable-background:new">
        <g
           id="layer12-1"
           inkscape:label="actions"
           style="display:inline"
           transform="translate(-345.00021,-61)">
          <path
             inkscape:connector-curvature="0"
             d="m 357.84395,64.03125 c -0.21888,0.0473 -0.42059,0.17053 -0.5625,0.34375 l -6.28125,7.1875 -2.25,-2.25 c -0.37633,-0.37638 -1.06119,-0.3764 -1.43755,-5e-5 -0.37635,0.37636 -0.37633,1.06122 5e-5,1.43755 l 3,3 0.78125,0.75 0.6875,-0.8125 7,-8 c 0.56742,-0.61773 -0.11583,-1.8248 -0.9375,-1.65625 z"
             id="path8741"
             sodipodi:nodetypes="ccccscccccc"
             style="color:#000000;font-style:normal;font-variant:normal;font-weight:normal;font-stretch:normal;font-size:medium;line-height:normal;font-family:Sans;-inkscape-font-specification:Sans;text-indent:0;text-align:start;text-decoration:none;text-decoration-line:none;letter-spacing:normal;word-spacing:normal;text-transform:none;writing-mode:lr-tb;direction:ltr;baseline-shift:baseline;text-anchor:start;display:inline;overflow:visible;visibility:visible;opacity:1;fill:#ffffff;fill-opacity:1;stroke:none;stroke-width:2;marker:none;enable-background:accumulate" />
        </g>
      </g>
    </g>
    <g
       transform="matrix(3.7795277,0,0,3.7795277,367.14286,-303.14272)"
       id="collapse">
      <rect
         y="254.13742"
         x="23.283327"
         height="4.2333379"
         width="4.2333331"
         id="rect4404"
         style="opacity:1;fill:#ca5c5c;fill-opacity:0" />
      <path
         inkscape:connector-curvature="0"
         id="path4542"
         transform="matrix(0.26458333,0,0,0.26458333,-0.52916771,249.37493)"
         d="m 95,19 3,4 c 0,0 3,-4.041575 3,-4 z m -4,6 v 2 h 14 v -2 z m 7,4 -3,4 h 6 c 0,0.04158 -3,-4 -3,-4 z"
         style="opacity:1;fill:#f3f3f3;fill-opacity:1;stroke:none" />
    </g>
    <g
       transform="matrix(3.7795277,0,0,3.7795277,367.14286,-303.14272)"
       id="restore">
      <rect
         style="opacity:1;fill:#ca5c5c;fill-opacity:0"
         id="rect4401"
         width="4.2333331"
         height="4.2333379"
         x="28.045832"
         y="254.13742" />
      <path
         inkscape:connector-curvature="0"
         id="path4546"
         transform="matrix(0.26458333,0,0,0.26458333,-0.52916771,249.37493)"
         d="m 116,19 -3,4 h 6 c 0,0.04158 -3,-4 -3,-4 z m -7,6 v 2 h 14 v -2 z m 4,4 3,4 c 0,0 3,-4.041575 3,-4 z"
         style="opacity:1;fill:#ffffff;fill-opacity:1;stroke:none" />
    </g>
    <g
       transform="matrix(3.7795277,0,0,3.7795277,367.14286,-303.14272)"
       id="help">
      <rect
         style="opacity:1;fill:#ca5c5c;fill-opacity:0"
         id="rect4581"
         width="4.2333331"
         height="4.2333379"
         x="-0.52916777"
         y="258.89993" />
      <g
         transform="matrix(0.26458333,0,0,0.26458333,-118.00412,149.89071)"
         style="display:inline"
         inkscape:label="categories"
         id="layer2-9">
        <path
           style="display:inline;opacity:1;fill:#f6f6f6;fill-opacity:1;stroke:none;enable-background:new"
           sodipodi:nodetypes="cccccccccsccssccssc"
           id="path4-7-8"
           d="m 452.99983,427.00336 h -2 v -2 h 2 z m 2.07,-7.75 -0.9,0.92 c -0.72,0.73 -1.17,1.33 -1.17,2.83 h -2 v -0.5 c 0,-1.1 0.45,-2.1 1.17,-2.83 l 1.24,-1.26 c 0.37,-0.36 0.59,-0.86 0.59,-1.41 0,-1.1 -0.9,-2 -2,-2 -1.1,0 -2,0.9 -2,2 h -2 c 0,-2.21 1.79,-4 4,-4 2.21,0 4,1.79 4,4 0,0.88 -0.36,1.68 -0.93,2.25 z"
           inkscape:connector-curvature="0" />
      </g>
    </g>
    <g
       transform="matrix(3.7795277,0,0,3.7795277,367.14286,-303.14272)"
       id="delete">
      <rect
         style="opacity:1;fill:#ca5c5c;fill-opacity:0"
         id="rect4579"
         width="4.2333331"
         height="4.2333379"
         x="4.2333322"
         y="258.89993" />
      <g
         transform="matrix(0.26458333,0,0,0.26458333,4.233393,258.90089)"
         id="g4697"
         style="enable-background:new">
        <g
           id="layer12-2"
           inkscape:label="actions"
           style="display:inline"
           transform="translate(-385.00043,78.996356)">
          <path
             inkscape:connector-curvature="0"
             d="m 387.0002,-74 v 9 c 5e-5,0.52358 0.47642,0.99995 1,1 h 8 1 c 0.52358,-5e-5 0.99995,-0.47642 1,-1 v -9 z"
             id="path8476-3"
             sodipodi:nodetypes="cccccccc"
             style="color:#000000;font-style:normal;font-variant:normal;font-weight:normal;font-stretch:normal;font-size:medium;line-height:normal;font-family:Sans;-inkscape-font-specification:Sans;text-indent:0;text-align:start;text-decoration:none;text-decoration-line:none;letter-spacing:normal;word-spacing:normal;text-transform:none;writing-mode:lr-tb;direction:ltr;baseline-shift:baseline;text-anchor:start;display:inline;overflow:visible;visibility:visible;opacity:1;fill:#fefefe;fill-opacity:1;stroke:none;stroke-width:2;marker:none;enable-background:accumulate" />
          <path
             inkscape:connector-curvature="0"
             d="m 386.0002,-76 v 1 l 13.0002,-0.0034 -2e-4,-0.99664 c 0,-1 -0.9998,-1.00336 -0.9998,-1.00336 h -3 c 0,0 0,-1 -1,-1 h -3 c -1,0 -1,1 -1,1 h -3 c 0,0 -1.0002,0.003 -1.0002,1.00336 z"
             id="path8478-1"
             sodipodi:nodetypes="ccccccccccc"
             style="color:#000000;font-style:normal;font-variant:normal;font-weight:normal;font-stretch:normal;font-size:medium;line-height:normal;font-family:Sans;-inkscape-font-specification:Sans;text-indent:0;text-align:start;text-decoration:none;text-decoration-line:none;letter-spacing:normal;word-spacing:normal;text-transform:none;writing-mode:lr-tb;direction:ltr;baseline-shift:baseline;text-anchor:start;display:inline;overflow:visible;visibility:visible;opacity:1;fill:#ffffff;fill-opacity:1;stroke:none;stroke-width:2;marker:none;enable-background:accumulate" />
        </g>
      </g>
    </g>
    <g
       transform="translate(68.607157,328.87168)"
       id="close">
      <rect
         y="346.50504"
         x="386.53571"
         height="16"
         width="16"
         id="rect3925"
         style="opacity:0;fill:#ffffff;fill-opacity:0.78431373;stroke:none" />
      <g
         transform="translate(-25,-20.5)"
         id="g3907">
        <path
           style="color:#31363b;opacity:1;fill:#fefefe;fill-opacity:1;stroke:none"
           d="m 412.53572,369.50504 5,5 -5,5 2,2 5,-5 5,5 2,-2 -5,-5 5,-5 -2,-2 -5,5 -5,-5 z"
           id="rect3129"
           inkscape:connector-curvature="0"
           sodipodi:nodetypes="ccccccccccccc"
           class="ColorScheme-Text" />
      </g>
    </g>
  </g>
</svg>
