<?xml version="1.0" encoding="UTF-8" standalone="no"?>
<!-- Created with Inkscape (http://www.inkscape.org/) -->

<svg
   id="svg7080"
   version="1.0"
   viewBox="0 0 32.080002 90.63"
   height="90.629997"
   width="32.080002"
   inkscape:version="1.1.1 (3bf5ae0d25, 2021-09-20)"
   sodipodi:docname="viewitem.svg"
   xmlns:inkscape="http://www.inkscape.org/namespaces/inkscape"
   xmlns:sodipodi="http://sodipodi.sourceforge.net/DTD/sodipodi-0.dtd"
   xmlns="http://www.w3.org/2000/svg"
   xmlns:svg="http://www.w3.org/2000/svg"
   xmlns:rdf="http://www.w3.org/1999/02/22-rdf-syntax-ns#"
   xmlns:cc="http://creativecommons.org/ns#"
   xmlns:dc="http://purl.org/dc/elements/1.1/">
  <sodipodi:namedview
     pagecolor="#ffffff"
     bordercolor="#666666"
     borderopacity="1"
     objecttolerance="10"
     gridtolerance="10"
     guidetolerance="10"
     inkscape:pageopacity="0"
     inkscape:pageshadow="2"
     inkscape:window-width="1920"
     inkscape:window-height="1013"
     id="namedview28"
     showgrid="false"
     inkscape:zoom="5.6568543"
     inkscape:cx="22.273863"
     inkscape:cy="52.325901"
     inkscape:current-layer="svg7080"
     inkscape:pagecheckerboard="false"
     inkscape:window-x="0"
     inkscape:window-y="0"
     inkscape:window-maximized="1"
     inkscape:showpageshadow="false"
     fit-margin-top="5"
     fit-margin-left="5"
     fit-margin-right="5"
     fit-margin-bottom="5"
     showguides="true"
     inkscape:guide-bbox="true"
     inkscape:lockguides="true">
    <inkscape:grid
       type="xygrid"
       id="grid5457" />
  </sodipodi:namedview>
  <defs
     id="defs7082">
    <linearGradient
       id="selected"
       inkscape:swatch="solid">
      <stop
         style="stop-color:#171717;stop-opacity:0.6682;"
         offset="0"
         id="stop1138" />
    </linearGradient>
    <style
       type="text/css"
       id="current-color-scheme">
      .ColorScheme-Text {
        color:#41363b;
        stop-color:#41363b;
      }
      .ColorScheme-Background {
        color:#eff0f1;
        stop-color:#eff0f1;
      }
      .ColorScheme-Highlight {
        color:#3daee9;
        stop-color:#3daee9;
      }
      .ColorScheme-ViewText {
        
        stop-
      }
      .ColorScheme-ViewBackground {
        color:#fcfcfc;
        stop-color:#fcfcfc;
      }
      .ColorScheme-ViewHover {
        color:#93cee9;
        stop-color:#93cee9;
      }
      .ColorScheme-ViewFocus{
        color:#3daee9;
        stop-color:#3daee9;
      }
      .ColorScheme-ButtonText {
        
        stop-
      }
      .ColorScheme-ButtonBackground {
        color:#eff0f1;
        stop-color:#eff0f1;
      }
      .ColorScheme-ButtonHover {
        color:#93cee9;
        stop-color:#93cee9;
      }
      .ColorScheme-ButtonFocus{
        color:#3daee9;
        stop-color:#3daee9;
      }
      </style>
    <linearGradient
       id="fill"
       inkscape:swatch="solid">
      <stop
         style="stop-color:#ffffff;stop-opacity:0.09130435;"
         offset="0"
         id="stop1075" />
    </linearGradient>
  </defs>
  <metadata
     id="metadata7085">
    <rdf:RDF>
      <cc:Work
         rdf:about="">
        <dc:format>image/svg+xml</dc:format>
        <dc:type
           rdf:resource="http://purl.org/dc/dcmitype/StillImage" />
      </cc:Work>
    </rdf:RDF>
  </metadata>
  <rect
     style="opacity:0.1;fill:#aa87de;fill-opacity:1;stroke:none;stroke-width:0.32"
     id="hover-center"
     width="16"
     height="16"
     x="8"
     y="36" />
  <rect
     y="-27"
     x="36"
     height="3"
     width="16"
     id="hover-right"
     style="opacity:0.1;fill:#aa87de;fill-opacity:1;stroke:none;stroke-width:0.1386"
     transform="rotate(90)" />
  <path
     sodipodi:nodetypes="ccssssc"
     inkscape:connector-curvature="0"
     id="hover-topright"
     d="m 24,33 c 3,0 3,0 3,3 0,0 0,0 0,0 h -2.969697 c 0,0 0,0 0,0 v -2.979798 c 0,0 0,0 0,0 z"
     style="opacity:0.1;fill:#aa87de;fill-opacity:1;fill-rule:nonzero;stroke:none;stroke-width:0.232728;stroke-linecap:square;stroke-linejoin:round;stroke-miterlimit:4;stroke-dasharray:none;stroke-dashoffset:0;stroke-opacity:1" />
  <rect
     transform="rotate(90)"
     style="opacity:0.1;fill:#aa87de;fill-opacity:1;stroke:none;stroke-width:0.1386"
     class="ColorScheme-Highlight"
     id="hover-left"
     width="16"
     height="3"
     x="36"
     y="-8" />
  <rect
     transform="scale(-1)"
     style="opacity:0.1;fill:#aa87de;fill-opacity:1;stroke:none;stroke-width:0.1386"
     id="hover-top"
     width="16"
     height="3"
     x="-24"
     y="-36" />
  <rect
     y="-55"
     x="-24"
     height="2"
     width="16"
     id="hover-bottom"
     style="opacity:1;fill:#006a80;fill-opacity:0.8;stroke:none;stroke-width:0.113165"
     transform="scale(-1)" />
  <path
     style="opacity:0.1;fill:#aa87de;fill-opacity:1;fill-rule:nonzero;stroke:none;stroke-width:0.232728;stroke-linecap:square;stroke-linejoin:round;stroke-miterlimit:4;stroke-dasharray:none;stroke-dashoffset:0;stroke-opacity:1"
     class="ColorScheme-Highlight"
     d="m 8,33 c -3,0 -3,0 -3,3 0,0 0,0 0,0 h 2.969697 c 0,0 0,0 0,0 v -2.979798 c 0,0 0,0 0,0 z"
     id="hover-topleft"
     inkscape:connector-curvature="0"
     sodipodi:nodetypes="ccssssc" />
  <path
     sodipodi:nodetypes="ccssssc"
     inkscape:connector-curvature="0"
     id="hover-bottomleft"
     d="m 8,54.996815 c -3,0 -3,0 -3,-1.995817 v 0 L 8,53 V 53.000994 55 Z"
     class="ColorScheme-Highlight"
     style="opacity:1;fill:#006a80;fill-opacity:0.8;fill-rule:nonzero;stroke:none;stroke-width:0.189504;stroke-linecap:square;stroke-linejoin:round;stroke-miterlimit:4;stroke-dasharray:none;stroke-dashoffset:0;stroke-opacity:1" />
  <path
     style="opacity:1;fill:#006a80;fill-opacity:0.8;fill-rule:nonzero;stroke:none;stroke-width:0.187078;stroke-linecap:square;stroke-linejoin:round;stroke-miterlimit:4;stroke-dasharray:none;stroke-dashoffset:0;stroke-opacity:1"
     d="m 24,55 c 2.922008,0 2.999928,-0.003 2.999928,-2 v 0 H 24 v 0 z"
     id="hover-bottomright"
     inkscape:connector-curvature="0"
     sodipodi:nodetypes="ccssssc" />
  <rect
     y="8"
     x="8"
     height="16"
     width="16"
     id="normal-center"
     style="opacity:0.15;fill:#006a80;fill-opacity:0.80000001;stroke:none;stroke-width:0.31999999" />
  <rect
     transform="rotate(90)"
     style="opacity:0.15;fill:#006a80;fill-opacity:0.80000001;stroke:none;stroke-width:0.13860001"
     id="normal-right"
     width="16"
     height="3"
     x="8"
     y="-27" />
  <path
     style="opacity:0.15;fill:#006a80;fill-opacity:0.80000001;fill-rule:nonzero;stroke:none;stroke-width:0.2304;stroke-linecap:square;stroke-linejoin:round;stroke-miterlimit:4;stroke-dasharray:none;stroke-dashoffset:0;stroke-opacity:1"
     d="m 24,5 c 2.96,0 2.97,0 2.97,2.97 0,0 0,0 0,0 h -2.94 c 0,0 0,0 0,0 V 5.03 c 0,0 0,0 0,0 z"
     id="normal-topright"
     inkscape:connector-curvature="0"
     sodipodi:nodetypes="ccssssc" />
  <rect
     y="-8"
     x="8"
     height="3"
     width="16"
     id="normal-left"
     class="ColorScheme-Highlight"
     style="fill:#006A80;fill-opacity:0.8;stroke:none;stroke-width:0.13860001;opacity:0.15"
     transform="rotate(90)" />
  <rect
     y="-8"
     x="-24"
     height="3"
     width="16"
     id="normal-top"
     style="opacity:0.15;fill:#006a80;fill-opacity:0.80000001;stroke:none;stroke-width:0.13860001"
     transform="scale(-1)" />
  <rect
     transform="scale(-1)"
     style="opacity:0.15;fill:#006a80;fill-opacity:0.80000001;stroke:none;stroke-width:0.13860001"
     id="normal-bottom"
     width="16"
     height="3"
     x="-24"
     y="-27" />
  <path
     sodipodi:nodetypes="ccssssc"
     inkscape:connector-curvature="0"
     id="normal-topleft"
     d="M 8,5 C 5.03,5 5.02,5 5.02,7.97 c 0,0 0,0 0,0 h 2.95 c 0,0 0,0 0,0 V 5.03 c 0,0 0,0 0,0 z"
     class="ColorScheme-Highlight"
     style="opacity:0.15;fill:#006A80;fill-opacity:0.8;fill-rule:nonzero;stroke:none;stroke-width:0.2304;stroke-linecap:square;stroke-linejoin:round;stroke-miterlimit:4;stroke-dasharray:none;stroke-dashoffset:0;stroke-opacity:1" />
  <path
     style="opacity:0.15;fill:#006A80;fill-opacity:0.8;fill-rule:nonzero;stroke:none;stroke-width:0.2304;stroke-linecap:square;stroke-linejoin:round;stroke-miterlimit:4;stroke-dasharray:none;stroke-dashoffset:0;stroke-opacity:1"
     class="ColorScheme-Highlight"
     d="m 8,27 c -2.97,0 -2.98,0 -2.98,-2.97 0,0 0,0 0,0 h 2.95 c 0,0 0,0 0,0 v 2.94 c 0,0 0,0 0,0 z"
     id="normal-bottomleft"
     inkscape:connector-curvature="0"
     sodipodi:nodetypes="ccssssc" />
  <path
     sodipodi:nodetypes="ccssssc"
     inkscape:connector-curvature="0"
     id="normal-bottomright"
     d="m 24,27 c 2.96,0 2.97,0 2.97,-2.97 0,0 0,0 0,0 h -2.94 c 0,0 0,0 0,0 v 2.94 c 0,0 0,0 0,0 z"
     style="opacity:0.15;fill:#006a80;fill-opacity:0.80000001;fill-rule:nonzero;stroke:none;stroke-width:0.2304;stroke-linecap:square;stroke-linejoin:round;stroke-miterlimit:4;stroke-dasharray:none;stroke-dashoffset:0;stroke-opacity:1" />
  <rect
     y="66.629997"
     x="8"
     height="16"
     width="16"
     id="selected-center"
     style="opacity:1;fill:#006a80;fill-opacity:0.80000001;stroke:none;stroke-width:0.31999999" />
  <rect
     transform="rotate(90)"
     style="opacity:1;fill:#006a80;fill-opacity:0.80000001;stroke:none;stroke-width:0.13860001"
     id="selected-right"
     width="16"
     height="3"
     x="66.629997"
     y="-27" />
  <path
     style="opacity:1;fill:#006a80;fill-opacity:0.80000001;fill-rule:nonzero;stroke:none;stroke-width:0.2304;stroke-linecap:square;stroke-linejoin:round;stroke-miterlimit:4;stroke-dasharray:none;stroke-dashoffset:0;stroke-opacity:1"
     d="m 24,63.63 c 2.96,0 2.97,0 2.97,2.98 0,0 0,0 0,0 h -2.94 c 0,0 0,0 0,0 v -2.95 c 0,0 0,0 0,0 z"
     id="selected-topright"
     inkscape:connector-curvature="0"
     sodipodi:nodetypes="ccssssc" />
  <rect
     y="-8"
     x="66.629997"
     height="3"
     width="16"
     id="selected-left"
     class="ColorScheme-Highlight"
     style="fill:#006A80;fill-opacity:0.8;stroke:none;stroke-width:0.13860001"
     transform="rotate(90)" />
  <rect
     y="-66.629997"
     x="-24"
     height="3"
     width="16"
     id="selected-top"
     style="opacity:1;fill:#006a80;fill-opacity:0.80000001;stroke:none;stroke-width:0.13860001"
     transform="scale(-1)" />
  <rect
     transform="scale(-1)"
     style="opacity:1;fill:#006a80;fill-opacity:0.80000001;stroke:none;stroke-width:0.13860001"
     id="selected-bottom"
     width="16"
     height="3"
     x="-24"
     y="-85.629997" />
  <path
     sodipodi:nodetypes="ccssssc"
     inkscape:connector-curvature="0"
     id="selected-topleft"
     d="m 8,63.63 c -2.97,0 -2.98,0 -2.98,2.98 0,0 0,0 0,0 h 2.95 c 0,0 0,0 0,0 v -2.95 c 0,0 0,0 0,0 z"
     class="ColorScheme-Highlight"
     style="opacity:1;fill:#006A80;fill-opacity:0.8;fill-rule:nonzero;stroke:none;stroke-width:0.2304;stroke-linecap:square;stroke-linejoin:round;stroke-miterlimit:4;stroke-dasharray:none;stroke-dashoffset:0;stroke-opacity:1" />
  <path
     style="opacity:1;fill:#006A80;fill-opacity:0.8;fill-rule:nonzero;stroke:none;stroke-width:0.2304;stroke-linecap:square;stroke-linejoin:round;stroke-miterlimit:4;stroke-dasharray:none;stroke-dashoffset:0;stroke-opacity:1"
     class="ColorScheme-Highlight"
     d="m 8,85.63 c -2.97,0 -2.98,0 -2.98,-2.97 0,0 0,0 0,0 h 2.95 c 0,0 0,0 0,0 v 2.95 c 0,0 0,0 0,0 z"
     id="selected-bottomleft"
     inkscape:connector-curvature="0"
     sodipodi:nodetypes="ccssssc" />
  <path
     sodipodi:nodetypes="ccssssc"
     inkscape:connector-curvature="0"
     id="selected-bottomright"
     d="m 24,85.63 c 2.96,0 2.97,0 2.97,-2.97 0,0 0,0 0,0 h -2.94 c 0,0 0,0 0,0 v 2.95 c 0,0 0,0 0,0 z"
     style="opacity:1;fill:#006a80;fill-opacity:0.80000001;fill-rule:nonzero;stroke:none;stroke-width:0.2304;stroke-linecap:square;stroke-linejoin:round;stroke-miterlimit:4;stroke-dasharray:none;stroke-dashoffset:0;stroke-opacity:1" />
</svg>
